<svg clip-rule="evenodd" fill-rule="evenodd" height="512" image-rendering="optimizeQuality" shape-rendering="geometricPrecision" text-rendering="geometricPrecision" viewBox="0 0 6.82666 6.82666" width="512" xmlns="http://www.w3.org/2000/svg"><g id="Layer_x0020_1"><g id="_440076808"><path id="_440077456" d="m4.51951 1.32241c0 .118421.0963031.214803.214811.214803l.735921-.00001181-.950732-.950787v.735996z"/><path id="_440076400" d="m4.55364 2.30238c.00002756.0387717-.0313346.0702283-.0702008.0702047h-2.14032c-.0387559 0-.0702283-.0314213-.0702283-.0702047.00000394-.0387835.0314606-.0702244.0702283-.0702244l2.14032-.00001968c.0388701 0 .0702008.0314606.0702008.0702441zm-3.29658-1.50637.00000787 4.21589 4.31253-.00000787.00000787-3.33424h-.835276c-.195913 0-.355272-.15935-.355272-.35524l.00000394-.835299h-2.81317c-.170327 0-.308835.138575-.308835.308902zm3.22638 2.13106c.0388701 0 .0702008.0314567.0702008.0702402.00002756.0387717-.0313346.0702283-.0702008.0702087h-2.14032c-.0387559 0-.0702283-.0314252-.0702283-.0702087.00000394-.0388071.0314606-.0702244.0702283-.0702244l2.14032-.00001575zm-2.14032.694945 2.14032-.00001181c.0388701 0 .0702008.0314567.0702008.0702362.00002756.0387756-.0313346.0702283-.0702008.0702126h-2.14032c-.0387559 0-.0702283-.0314291-.0702283-.0702126.00000394-.0388031.0314606-.0702244.0702283-.0702244zm0 .694929 2.14032-.00001181c.0388701 0 .0702008.0314567.0702008.0702402.00002756.0387756-.0313346.0702244-.0702008.0702087h-2.14032c-.0387559 0-.0702283-.0314252-.0702283-.0702087.00000394-.0388031.0314606-.0702283.0702283-.0702283zm1.50829-2.63929h-2.0668c-.0387638 0-.0702323-.0314291-.0702323-.0702244.00000394-.0387874.0314567-.0702165.0702283-.0702165l2.0668-.00000787c.0387598 0 .0702008.0314449.0702008.0702244.00002362.0387913-.0314528.0702244-.0702008.0702244zm0-.461512h-2.0668c-.0387638 0-.0702323-.0314291-.0702323-.0702126.00000394-.0388031.0314567-.0702244.0702283-.0702244l2.0668-.00001181c.0387598 0 .0702008.0314528.0702008.0702362.00002362.0387756-.0314528.0702244-.0702008.0702126z"/><path id="_440076664" d="m5.56959 5.15231h-4.31253v.878315c0 .170327.138496.308925.308815.308925l3.69478-.00001575c.170323 0 .308925-.138559.308925-.30889l.00000394-.878335zm-.801496.411563c0 .0387598-.0313346.0702126-.0702283.0701969-.0387559 0-.0702283-.0314173-.0702283-.0701969v-.0384055c-.0405433-.0255472-.086189-.0389173-.133622-.0389173-.14774-.00001181-.268098.131091-.268098.292209.00001575.161094.120335.292189.268098.292189.047437-.00002362.0931496-.013374.133622-.0389409l.00000394-.0742244c-.0368819-.00209055-.0662008-.0326772-.0662008-.0701063.00000787-.0387874.0314528-.0702244.0702244-.0702244h.0661969.121693c.0387638 0 .0702126.0314449.0702126.0702244l.00001575.253472c0 .0387913-.0314685.070252-.0702283.0702244-.0387559 0-.0702402-.0314173-.0702402-.0702008l.00000394-.0253661c-.00222047.00238976-.00462205.00463386-.00719291.0067126-.0708386.057311-.158984.0888819-.248102.0888543-.225299 0-.408555-.194059-.408555-.432614.00001181-.238591.18324-.43265.408547-.43265.0455276-.00001181.0907913.00822835.133626.0239213v-.0193307c0-.0387913.0314567-.0702165.0702205-.0702165.0389055-.00000787.0702283.0314409.0702283.0702244l.00000394.136835c.00003937.0013189.00003543.0026378 0 .00395669v.072374zm-1.06734-.142098-.220228.739453c-.00891339.0297362-.0362283.0501732-.0673189.0501457-.0310787 0-.0584055-.0203858-.0672992-.0501575l-.220228-.739441h-.044315c-.0388976 0-.070248-.0314055-.070248-.070189.00002362-.0387992.0313307-.0702244.0702244-.0702244l.0949724-.00000394c.00110236-.00002756.00220079-.00002756.00329921 0l.0950945-.00000394c.0387874 0 .0702205.031437.0702205.0702323.00000394.0387795-.0314528.0702126-.0702205.070189h-.00250394l.141004.47339.141004-.47339h-.00249606c-.0387638 0-.0702362-.0314055-.0702362-.070189.00000787-.0387992.0314567-.0702244.0702244-.0702244l.095563-.00000394c.00078347-.00001181.00157087-.00001181.00235827 0l.0954567-.00000394c.0388976 0 .0702126.031437.0702126.0702323.00001181.0387795-.0313307.0702126-.0702126.070189h-.0443268zm-.959815.53185c.00002362.144539-.176657.257776-.402071.257748-.225437 0-.40211-.113201-.40211-.257748.00001181-.0387874.0314567-.0702126.0702283-.0702126.0389094-.00001575.0702244.0314331.0702244.0702126.00001181.0478386.101925.117323.261638.117323.159724-.00002362.261642-.0694843.261642-.117323.00002362-.0644094-.15728-.107752-.283587-.142598-.178126-.0491496-.380146-.104823-.380146-.271551.00001181-.144555.176665-.25776.402091-.25776.225457-.00000787.402091.113213.402091.25776.00002362.0387677-.0314528.0702165-.0702244.0702165-.0387677-.00000787-.0702244-.0314331-.0702244-.0702165.00002362-.0478583-.101925-.117311-.261642-.117311-.159689-.00000394-.261638.0694685-.261638.117311.00001181.0597559.160087.103925.277.136161.181315.0499764.386728.106642.386728.277988z"/></g></g></svg>